# xmcd CD database file
#
# Track frame offsets:
#	150
#	14365
#	31245
#	49039
#	69429
#	95145
#	117158
#	135625
#	153526
#	170485
#	212453
#
# Disc length: 3098 seconds
#
# Revision: 0
# Processed by: cddbd v1.5.2PL0 Copyright (c) Steve Scherf et al.
# Submitted via: WildFire CD Ripper 1.70beta2
#
DISCID=900c180b
DTITLE=Evans Blue - The Pursuit Begins When This Portrayal Of Life Ends
DYEAR=1900
DGENRE=
TTITLE0=In A Red Dress And Alone
TTITLE1=Shine Your Cadillac
TTITLE2=Q (The Best One Of Our Lives)
TTITLE3=Kiss The Flag
TTITLE4=My Damsel: A Confession To An Adversary
TTITLE5=Pin-Up
TTITLE6=Caught A Lite Sneeze
TTITLE7=Fear
TTITLE8=Dear Lucid, Our Time Is Right Now
TTITLE9=Painted
TTITLE10=The Pursuit
EXTD=
EXTT0=
EXTT1=
EXTT2=
EXTT3=
EXTT4=
EXTT5=
EXTT6=
EXTT7=
EXTT8=
EXTT9=
EXTT10=
PLAYORDER=
